<svg xmlns="http://www.w3.org/2000/svg" xmlns:xlink="http://www.w3.org/1999/xlink" width="24" height="24" version="1.1" viewBox="0 0 24 24"><title>0FB4FCA2-88CC-4246-A294-88F3DCBC18B0</title><desc>Created with sketchtool.</desc><g id="Icons" fill="none" fill-rule="evenodd" stroke="none" stroke-width="1"><g id="Style-guide---Desktop---Icons-2" transform="translate(-161.000000, -1064.000000)"><g id="kb-iconfont-nav-folder-24" transform="translate(161.000000, 1064.000000)"><rect id="icon-area" width="24" height="24" x="0" y="0" fill="#D8D8D8" opacity="0"/><path id="Icon-public" fill="#000" d="M4.67334292,5 C3.66981796,5 2.99268112,5.77265126 2.99268112,6.67592585 L2.99268112,17.9696545 C2.99268112,18.5375086 3.46191288,18.9989352 4.03855472,18.9989352 L19.9447875,18.9812717 C20.5210627,18.9812717 20.9902945,18.5198452 20.9902945,17.9519911 L20.9741821,9.32951189 C20.9741821,8.7616578 20.5984495,8.04351878 19.9447876,8.04351878 L12.5320256,8.04351878 C11.9828778,7.84396449 11.4313561,7.60559272 11.0962953,7.17807868 L9.72871011,5.43797641 C9.51975534,5.16379019 9.20705636,5 8.89252445,5 L4.67334292,5 Z"/></g></g></g></svg>