<svg xmlns="http://www.w3.org/2000/svg" xmlns:xlink="http://www.w3.org/1999/xlink" width="16" height="16" version="1.1" viewBox="0 0 16 16"><title>BEE56D43-BF5F-4AD5-BD61-6E8285F1B93B</title><desc>Created with sketchtool.</desc><g id="Icons" fill="none" fill-rule="evenodd" stroke="none" stroke-width="1"><g id="Style-guide---Desktop---Icons-2" transform="translate(-401.000000, -1207.000000)"><g id="kb-iconfont-add-16" transform="translate(401.000000, 1207.000000)"><rect id="icon-area" width="16" height="16" x="0" y="0" fill="#D8D8D8" opacity="0"/><path id="Combined-Shape" fill="#000" d="M9,7 L9,4 L7,4 L7,7 L4,7 L4,9 L7,9 L7,12 L9,12 L9,9 L12,9 L12,7 L9,7 Z M0,8 C0,3.581722 3.59071231,0 8,0 C12.418278,0 16,3.59071231 16,8 C16,12.418278 12.4092877,16 8,16 C3.581722,16 0,12.4092877 0,8 Z"/></g></g></g></svg>